<?xml version="1.0" encoding="UTF-8" standalone="no"?>
<svg width="550px" height="551px" viewBox="0 0 550 551" version="1.1" xmlns="http://www.w3.org/2000/svg" xmlns:xlink="http://www.w3.org/1999/xlink" xmlns:sketch="http://www.bohemiancoding.com/sketch/ns">
    <!-- Generator: Sketch 3.5.2 (25235) - http://www.bohemiancoding.com/sketch -->
    <title>Shape</title>
    <desc>Created with Sketch.</desc>
    <defs></defs>
    <g id="Page-1" stroke="none" stroke-width="1" fill="none" fill-rule="evenodd" sketch:type="MSPage">
        <g id="anchor" sketch:type="MSLayerGroup" fill="#49ABC2">
            <path d="M455.267,135.896229 C463.000127,138.822276 471.272263,140.461303 479.813903,140.461303 C498.55821,140.461303 516.23,133.151683 529.496218,119.885466 C556.837166,92.5005169 556.837166,47.9497863 529.496218,20.5648372 C516.23,7.30961987 498.613211,0 479.813903,0 C461.069596,0 443.452807,7.30961987 430.186589,20.5703373 C416.920372,33.8365549 409.616252,51.469844 409.616252,70.2361518 C409.616252,78.7942921 411.282779,87.0664278 414.181327,94.8325551 L401.718122,107.32326 C395.756024,101.801169 389.738926,96.3560801 383.617325,91.0044923 L383.672326,90.9714918 C384.744844,89.887974 385.338854,88.4029497 385.283853,86.8794247 C385.228852,85.3503996 384.53034,83.9148761 383.402822,82.9138597 C377.385723,77.7327747 371.209122,72.7166924 365.087522,67.7116104 C362.887485,65.9405813 359.713933,66.1000839 357.728401,68.0911166 L357.029889,68.8061283 C347.360731,61.0620013 337.642071,53.4498765 327.648408,46.2172579 C325.448372,44.6277318 322.439822,44.8642357 320.558791,46.7837672 L286.507733,80.8128252 C284.599202,82.7268566 284.357198,85.740906 285.941224,87.9299419 C293.190343,97.9071055 300.791467,107.658765 308.524594,117.294923 L307.826083,118.004435 C305.84055,119.989968 305.675547,123.16352 307.452076,125.352556 C312.446158,131.518157 317.44024,137.645257 322.654326,143.667856 C323.622342,144.828375 325.068865,145.521386 326.57589,145.581887 L326.790394,145.581887 C328.291918,145.581887 329.688941,145.009878 330.711958,143.970361 L330.82196,143.865859 C336.140547,149.981959 341.563636,156.021059 347.041726,161.977656 L346.453216,162.571666 L346.453216,162.588166 L323.193335,185.837047 L177.930452,331.12193 L177.930452,331.12743 C163.426715,345.653168 144.115898,353.650299 123.573061,353.650299 C103.030224,353.650299 83.746908,345.653168 69.2156697,331.12743 C50.2843592,312.190619 43.3542456,285.762686 48.3483275,261.298285 L58.5509948,268.371401 C59.4915102,269.014911 60.5915283,269.350417 61.6915463,269.350417 C62.280056,269.350417 62.9015662,269.251415 63.4625754,269.053412 C65.1291027,268.486903 66.4161238,267.172381 66.9276322,265.500354 L97.409132,168.885769 C98.1351439,166.592232 97.2771299,164.078691 95.2860972,162.709168 C93.2950646,161.339646 90.6660214,161.411147 88.7574902,162.901671 L9.05568316,225.388196 C7.6861607,226.466214 6.90514789,228.132741 6.96014879,229.87627 C7.0151497,231.619798 7.90066422,233.236825 9.32518758,234.237841 L19.720358,241.448459 C-9.03961358,295.294342 -6.75707615,362.131438 29.3070152,414.514297 C29.3345157,414.536298 29.3620162,414.547298 29.3620162,414.569298 C38.8936725,428.70453 44.0527571,445.1333 44.3222615,462.051577 C44.3222615,462.172579 44.4047628,462.271581 44.4047628,462.398083 C44.4047628,462.513585 44.3772624,462.618086 44.3772624,462.739088 L49.1018399,496.207137 C49.1018399,496.36114 49.2118417,496.482142 49.233842,496.630644 C49.2888429,496.856148 49.3658442,497.059651 49.4483455,497.274155 C49.6078482,497.708662 49.7948512,498.115668 50.0368552,498.495175 C50.1688574,498.693178 50.3338601,498.863681 50.4933627,499.050684 C50.7628671,499.369689 51.0818723,499.644693 51.4338781,499.886697 C51.6483816,500.0462 51.8628851,500.183702 52.1323896,500.304704 C52.4788952,500.486207 52.8584015,500.612709 53.259908,500.706211 C53.4469111,500.755712 53.6064137,500.865713 53.7989169,500.893214 L87.2614656,505.612291 C87.4759691,505.645292 87.6904727,505.650792 87.9049762,505.656292 L87.9324766,505.667292 C104.850754,505.931297 121.263023,511.101381 135.387255,520.616537 C135.387255,520.622037 135.387255,520.627538 135.414755,520.633038 C164.015224,540.361861 196.999265,550.02002 229.790803,550.02002 C257.021749,550.02002 284.065693,543.249409 308.530094,530.181194 L315.834214,540.713867 C316.80223,542.14939 318.413756,543.023905 320.184785,543.078906 L320.344288,543.078906 C322.010815,543.078906 323.622342,542.303393 324.639858,540.966871 L387.104383,461.226563 C388.605907,459.329032 388.660908,456.683489 387.318886,454.703456 C385.921863,452.717924 383.397322,451.84341 381.142285,452.591422 L284.5167,483.089422 C282.850173,483.617431 281.535651,484.898952 280.969142,486.554479 C280.402633,488.210006 280.644637,490.030536 281.667654,491.466059 L288.839771,501.828229 C283.790688,502.873246 278.609603,503.445256 273.346017,503.445256 C273.346017,503.445256 273.346017,503.445256 273.318517,503.445256 C252.80318,503.445256 233.492364,495.448125 218.988626,480.933387 C189.018634,450.952395 189.018634,402.177595 218.961125,372.202104 C218.988626,372.196603 218.988626,372.196603 218.988626,372.191103 L388.127399,203.035829 C394.089497,208.53592 400.106596,213.953509 406.228196,219.288596 L406.118194,219.393098 C405.045677,220.476615 404.451667,221.96164 404.506668,223.485165 C404.561669,225.01419 405.26018,226.449713 406.4427,227.44523 C412.459798,232.631815 418.581399,237.647897 424.758,242.652979 C425.781017,243.477993 427.013037,243.884999 428.195556,243.884999 C429.64758,243.884999 431.044603,243.34049 432.117121,242.273473 L432.815632,241.558461 C442.374789,249.231087 451.988947,256.75521 461.872609,263.927328 C462.840625,264.63134 464.023144,264.972345 465.150662,264.972345 C466.547685,264.972345 467.944708,264.427836 469.017226,263.360819 L503.068284,229.337261 C504.949315,227.423229 505.21882,224.40918 503.607293,222.220144 C496.407675,212.330982 488.889052,202.689324 481.210926,193.130167 L481.964438,192.404155 C483.949971,190.413122 484.114973,187.23957 482.338444,185.050535 C477.344362,178.895934 472.29528,172.757833 467.136195,166.740734 C466.168179,165.580215 464.721655,164.887204 463.15963,164.826703 C461.658105,164.733201 460.15108,165.349211 459.078563,166.432729 L459.023562,166.46573 C453.704975,160.36063 448.281886,154.343531 442.748795,148.403434 L455.267,135.896229 L455.267,135.896229 Z M437.974717,28.3474649 C449.1454,17.1602814 464.023144,11.0001804 479.813903,11.0001804 C495.659663,11.0001804 510.537407,17.1602814 521.70809,28.3474649 C544.802969,51.4423436 544.802969,89.0189598 521.70809,112.113839 C510.537407,123.301022 495.659663,129.466623 479.813903,129.466623 C474.390814,129.466623 469.017226,128.68011 463.913142,127.244587 L474.550317,116.568912 C476.321346,116.777915 478.042874,116.926417 479.813903,116.926417 C492.277107,116.926417 504.0363,112.069838 512.847445,103.253193 C531.058243,85.0533948 531.058243,55.4354091 512.847445,37.2301105 C504.0363,28.4134659 492.277107,23.5568863 479.813903,23.5568863 C467.350699,23.5568863 455.641007,28.4134659 446.835362,37.2301105 C436.412691,47.6582815 432.012619,61.832014 433.569145,75.4612375 L422.827468,86.1809132 C421.375445,81.0493291 420.627432,75.7087415 420.627432,70.2361518 C420.627432,54.4068922 426.804034,39.5346483 437.974717,28.3474649 L437.974717,28.3474649 Z M481.590432,78.4312862 L471.651769,68.4926232 C467.515701,64.3455552 461.982611,62.0630177 456.075514,62.0630177 C451.939446,62.0630177 447.962881,63.2565373 444.525324,65.3850722 C445.548341,57.9269499 448.875896,50.7273319 454.62349,45.0072381 C461.3391,38.2641275 470.309747,34.5570667 479.813903,34.5570667 C489.37306,34.5570667 498.343707,38.2696276 505.059317,45.0072381 C518.969045,58.9224662 518.969045,81.5608375 505.059317,95.4760657 C499.471225,101.058657 492.381609,104.523714 484.703483,105.563231 C489.912069,97.0765919 488.944053,85.7849067 481.590432,78.4312862 L481.590432,78.4312862 Z M409.132244,115.457893 L448.287386,76.2642506 C452.423454,72.139183 459.727574,72.1281828 463.863641,76.2642506 L473.802304,86.2084137 C478.097875,90.498484 478.097875,97.4780985 473.802304,101.779169 L455.112998,120.501476 C455.112998,120.506976 455.057997,120.506976 455.057997,120.512476 L434.647162,140.945311 C430.351592,145.235382 423.366477,145.235382 419.070907,140.950811 L417.998389,139.867294 L443.084301,114.803383 C445.234836,112.652847 445.234836,109.17129 443.084301,107.026255 C440.933765,104.87572 437.446708,104.87572 435.296173,107.026255 L410.210262,132.090166 L409.137744,131.001148 C404.886174,126.716578 404.831173,119.747964 409.132244,115.457893 L409.132244,115.457893 Z M297.623415,85.2568981 L324.964364,57.8884493 C333.181498,63.9275483 341.23913,70.2141514 349.241762,76.5997561 L316.367723,109.473795 C309.976618,101.509665 303.640514,93.4685327 297.623415,85.2568981 L297.623415,85.2568981 Z M319.112268,122.267005 L361.974471,79.3773017 C365.252524,82.0283451 368.475577,84.701389 371.69863,87.4019333 L327.120399,131.963664 C324.425355,128.757111 321.741311,125.523058 319.112268,122.267005 L319.112268,122.267005 Z M81.5688723,182.525993 L58.6884971,255.077683 L21.7333911,229.441763 L81.5688723,182.525993 L81.5688723,182.525993 Z M367.502061,468.415181 L320.613792,528.305663 L294.966872,491.323057 L367.502061,468.415181 L367.502061,468.415181 Z M211.200498,488.705014 C227.79977,505.298786 249.844132,514.439936 273.318517,514.439936 L273.346017,514.439936 C280.947142,514.439936 288.383264,513.389419 295.555381,511.502888 L302.18849,521.073045 C252.104669,547.357976 190.201154,545.025938 141.640857,511.563389 C141.640857,511.557889 141.640857,511.557889 141.613357,511.557889 C141.613357,511.546889 141.585856,511.524888 141.585856,511.513888 C125.795098,500.871214 107.479797,495.068618 88.5704871,494.678112 L66.2236206,491.52656 L370.021102,187.679578 C372.171638,185.534542 372.171638,182.047485 370.021102,179.90245 C367.870567,177.751915 364.433011,177.751915 362.287976,179.90245 L58.440993,483.776933 L55.3004415,461.397066 C54.9264354,442.493256 49.0963398,424.166956 38.4591653,408.387197 C38.4316649,408.354196 38.4041644,408.337696 38.376664,408.304696 L38.376664,408.271695 C4.94711578,359.711399 2.582077,297.846384 28.8230073,247.751563 L38.6791689,254.582675 C31.1055447,283.766153 38.624168,316.084683 61.427542,338.899057 C78.0268142,355.50383 100.098676,364.65048 123.573061,364.65048 C147.047446,364.65048 169.124808,355.50383 185.71858,338.899057 C185.71858,338.893557 185.71858,338.882557 185.746081,338.877057 L314.327189,210.257448 C314.327189,210.257448 314.327189,210.257448 314.327189,210.251948 L330.975962,193.608675 L354.235844,170.343293 C358.371911,166.234726 365.676031,166.240226 369.757098,170.359794 L379.695761,180.314957 C383.991332,184.605027 383.991332,191.590142 379.695761,195.885712 L339.842108,235.783367 L339.842108,235.788867 L211.227998,364.402976 C211.227998,364.408476 211.200498,364.408476 211.200498,364.413976 C176.934936,398.668538 176.934936,454.422952 211.200498,488.705014 L211.200498,488.705014 Z M491.952602,224.887688 L464.562153,252.250637 C456.44952,246.288539 448.501889,240.056937 440.658761,233.731833 L473.422798,200.918295 C479.764402,208.805424 485.990504,216.764055 491.952602,224.887688 L491.952602,224.887688 Z M470.683753,188.136085 L427.82155,230.981788 C424.598497,228.325244 421.320444,225.6577 418.152392,222.957156 L462.626121,178.428426 C465.365166,181.645979 467.999709,184.885532 470.683753,188.136085 L470.683753,188.136085 Z M414.016324,211.483968 C407.031209,205.384368 400.156097,199.174766 393.390986,192.849662 C394.947511,185.754546 393.01698,178.04342 387.483889,172.537829 L377.545226,162.588166 C373.409158,158.446598 367.876067,156.164061 361.96897,156.164061 C360.357444,156.164061 358.800918,156.378564 357.244393,156.71957 C350.908289,149.943459 344.676687,143.051846 338.604587,136.061231 L375.878699,98.7761198 C382.69881,104.743718 389.35942,110.837818 395.965028,117.030919 C393.709991,124.494542 395.48102,132.887679 401.338616,138.783776 L411.32678,148.733439 C415.567349,153.018009 421.210442,155.163044 426.848034,155.163044 C428.943569,155.163044 431.039103,154.783538 433.079637,154.162028 C439.256238,160.745636 445.328337,167.433746 451.290435,174.242857 L414.016324,211.483968 L414.016324,211.483968 Z" id="Shape" sketch:type="MSShapeGroup"></path>
        </g>
    </g>
</svg>