<?xml version="1.0" encoding="UTF-8" standalone="no"?>
<svg width="551px" height="500px" viewBox="0 0 551 500" version="1.1" xmlns="http://www.w3.org/2000/svg" xmlns:xlink="http://www.w3.org/1999/xlink" xmlns:sketch="http://www.bohemiancoding.com/sketch/ns">
    <!-- Generator: Sketch 3.5.2 (25235) - http://www.bohemiancoding.com/sketch -->
    <title>Shape</title>
    <desc>Created with Sketch.</desc>
    <defs></defs>
    <g id="Page-1" stroke="none" stroke-width="1" fill="none" fill-rule="evenodd" sketch:type="MSPage">
        <g sketch:type="MSLayerGroup" id="arrow" fill="#F9577C">
            <g sketch:type="MSShapeGroup">
                <path d="M466.780359,476.975349 L487.81387,497.026479 C488.539163,497.717898 489.264457,497.717898 490.715043,497.717898 C491.440338,497.717898 492.165631,497.717898 492.165631,497.026479 C493.616218,496.335061 494.341511,494.952224 494.341511,493.569388 L483.462109,443.787271 C483.462109,443.095853 482.736816,442.404435 482.736816,442.404435 L492.890924,432.724579 C493.616218,433.415997 493.616218,433.415997 494.341511,433.415997 L546.562643,443.787271 L547.287936,443.787271 C548.738523,443.787271 550.189111,443.095853 550.189111,441.713017 C550.914404,440.33018 550.914404,438.947344 549.463817,437.564507 L449.373314,343.53162 C448.648021,342.840202 447.922728,342.840202 447.197434,342.840202 L394.976302,332.468928 L394.976302,332.468928 L294.8858,236.361787 L431.240977,106.375149 L437.043325,111.906496 C437.768619,112.597914 438.493912,112.597914 439.944499,112.597914 C441.395087,112.597914 442.12038,112.597914 442.845673,111.906496 C444.29626,110.523659 444.29626,108.449404 442.845673,107.066568 L437.043325,101.535221 L460.252717,79.4098364 C460.252717,80.1012547 460.97801,80.1012547 460.97801,80.1012547 L463.879185,102.918058 C463.879185,104.300895 465.329771,105.683731 466.780359,105.683731 L467.505652,105.683731 C468.956239,105.683731 470.406826,104.992313 470.406826,103.609476 L521.902664,5.42808015 C522.627957,4.04524359 522.627957,2.66240702 521.177371,1.27957046 C519.726783,-0.10326611 518.276197,-0.10326611 516.82561,0.58815217 L413.10864,51.0616868 C411.658053,51.7531051 410.932759,53.1359417 410.932759,54.5187782 C410.932759,55.9016148 412.383346,57.2844514 413.833934,57.2844514 L437.768619,60.0501245 L438.493912,60.7415428 L415.28452,82.8669278 L410.207466,77.3355816 C408.756879,75.952745 406.580998,75.952745 405.130412,77.3355816 C403.679824,78.7184181 403.679824,80.792673 405.130412,82.1755096 L410.932759,87.7068558 L275.302876,217.693493 L138.222405,87.7068558 L144.024754,82.1755096 C145.47534,80.792673 145.47534,78.7184181 144.024754,77.3355816 C142.574166,75.952745 140.398286,75.952745 138.947698,77.3355816 L133.145351,82.8669278 L109.935959,60.7415428 C110.661252,60.7415428 110.661252,60.0501245 110.661252,60.0501245 L134.595938,57.2844514 C136.046525,57.2844514 137.497112,55.9016148 137.497112,54.5187782 C137.497112,53.1359417 136.771819,51.7531051 135.321231,51.0616868 L32.329555,1.97098874 C30.8789681,1.27957046 29.428381,1.27957046 27.9777941,2.66240702 C26.5272071,4.04524359 26.5272071,5.42808015 27.2525006,6.8109167 L80.1989257,104.992313 C80.9242192,106.375149 82.3748063,107.066568 83.1000997,107.066568 L83.8253932,107.066568 C85.2759802,107.066568 86.7265672,105.683731 86.7265672,104.300895 L89.6277412,81.4840913 L90.3530347,80.792673 L113.562426,102.918058 L107.760079,108.449404 C106.309491,109.832241 106.309491,111.906496 107.760079,113.289332 C108.485372,113.980751 109.210665,113.980751 110.661252,113.980751 C112.11184,113.980751 112.837133,113.980751 113.562426,113.289332 L119.364775,107.757986 L254.994658,236.361787 L153.453569,333.160346 L102.683025,343.53162 C101.95773,343.53162 101.232437,344.223039 100.507144,344.223039 L79.4736323,365.657006 L22.9007397,419.587632 L1.86722828,439.638762 C0.416641288,441.021598 0.416641288,442.404435 1.14193478,443.787271 C1.86722828,445.170108 3.31781527,445.861526 4.04310876,445.861526 L4.76840226,445.861526 L56.9895339,435.490252 C57.7148274,435.490252 58.4401209,434.798834 58.4401209,434.798834 L68.5942298,444.47869 C67.8689363,445.170108 67.8689363,445.170108 67.8689363,445.861526 L56.9895339,495.643643 C56.9895339,497.026479 57.7148274,498.409316 59.1654143,499.100734 C59.8907079,499.100734 60.6160014,499.792152 60.6160014,499.792152 C61.3412949,499.792152 62.7918818,499.100734 63.5171754,499.100734 L163.607677,403.685011 C164.332971,402.993593 164.332971,402.302175 164.332971,401.610756 L175.212373,351.82864 L175.212373,351.82864 L275.302876,255.721499 L376.118672,351.82864 L386.998074,400.22792 C386.998074,400.919338 387.723368,401.610756 387.723368,402.302175 L410.207466,423.736141 L466.780359,476.975349 L466.780359,476.975349 L466.780359,476.975349 Z M439.944499,452.084291 L463.153891,474.209676 L439.944499,452.084291 L439.944499,452.084291 Z M49.0113055,394.005155 L25.8019136,416.13054 L49.0113055,394.005155 L49.0113055,394.005155 Z M75.8471648,369.114097 L52.637773,391.239482 L75.8471648,369.114097 L75.8471648,369.114097 Z M471.857413,405.759266 L454.450369,389.165227 L495.066804,397.462247 L512.473849,414.056285 L471.857413,405.759266 L471.857413,405.759266 L471.857413,405.759266 L471.857413,405.759266 Z M485.637989,388.473809 L445.746848,380.176789 L445.746848,380.176789 L428.339803,363.582751 L468.956239,371.87977 L485.637989,388.473809 L485.637989,388.473809 L485.637989,388.473809 Z M445.021553,349.062967 L459.527424,362.891332 L419.636281,354.594313 L419.636281,354.594313 L405.130412,340.765947 L445.021553,349.062967 L445.021553,349.062967 L445.021553,349.062967 Z M465.329771,64.1986342 L464.604478,58.6672879 C464.604478,57.2844514 463.153891,55.9016148 461.703304,55.9016148 L455.900956,55.2101965 L474.033293,46.9131771 L465.329771,64.1986342 L465.329771,64.1986342 L465.329771,64.1986342 Z M509.572675,13.0336813 L468.956239,91.1639472 L467.505652,77.3355816 L484.912696,41.3818309 C485.637989,39.9989943 484.912696,38.6161577 484.187403,37.2333212 C483.462109,36.5419029 481.286228,35.8504846 479.835642,36.5419029 L442.12038,53.82736 L427.61451,52.4445234 L509.572675,13.0336813 L509.572675,13.0336813 L509.572675,13.0336813 Z M449.373314,61.4329611 L458.076837,62.1243794 L458.80213,70.4213987 L431.240977,96.695293 L421.812162,87.7068558 L449.373314,61.4329611 L449.373314,61.4329611 L449.373314,61.4329611 Z M416.735108,92.5467838 L426.163923,101.535221 L289.808746,231.521859 L280.379931,222.533421 L416.735108,92.5467838 L416.735108,92.5467838 L416.735108,92.5467838 Z M88.1771542,55.9016148 C86.7265672,55.9016148 85.2759802,57.2844514 85.2759802,58.6672879 L84.5506867,64.1986342 L75.8471648,46.9131771 L93.9795022,55.2101965 L88.1771542,55.9016148 L88.1771542,55.9016148 L88.1771542,55.9016148 Z M81.6495127,91.1639472 L40.3077835,12.342263 L122.991241,51.7531051 L108.485372,53.1359417 L70.7701102,36.5419029 C69.3195233,35.8504846 67.8689363,36.5419029 66.4183493,37.2333212 C64.9677623,37.9247394 64.9677623,39.9989943 65.6930558,41.3818309 L83.1000997,77.3355816 L81.6495127,91.1639472 L81.6495127,91.1639472 L81.6495127,91.1639472 Z M91.0783282,70.4213987 L91.8036216,62.1243794 L100.507144,61.4329611 L128.068297,87.7068558 L118.639481,96.695293 L91.0783282,70.4213987 L91.0783282,70.4213987 L91.0783282,70.4213987 Z M105.584198,349.754385 L144.750047,342.148784 L130.96947,355.285731 L130.96947,355.285731 L92.5289151,362.891332 L105.584198,349.754385 L105.584198,349.754385 L105.584198,349.754385 Z M83.1000997,371.87977 L122.265948,364.274169 L104.858904,380.868208 C104.858904,380.868208 104.858904,380.868208 104.133611,380.868208 L65.6930558,388.473809 L83.1000997,371.87977 L83.1000997,371.87977 L83.1000997,371.87977 Z M56.2642404,397.462247 L95.4300891,389.856645 L78.0230452,406.450684 C78.0230452,406.450684 78.0230452,406.450684 77.2977517,406.450684 L38.8571965,414.056285 L56.2642404,397.462247 L56.2642404,397.462247 L56.2642404,397.462247 Z M29.428381,422.353305 L68.5942298,414.747704 L56.2642404,426.501814 C55.5389469,427.193233 55.5389469,427.193233 55.5389469,427.884651 L15.6478047,436.18167 L29.428381,422.353305 L29.428381,422.353305 L29.428381,422.353305 Z M75.1218713,446.552945 L75.1218713,446.552945 C75.1218713,445.861526 75.8471648,445.861526 75.8471648,445.861526 L88.1771542,434.107416 L79.4736323,472.135421 L66.4183493,484.58095 L75.1218713,446.552945 L75.1218713,446.552945 L75.1218713,446.552945 Z M115.738307,437.564507 L124.441829,399.536501 L124.441829,399.536501 L141.848873,382.942463 L133.145351,421.661886 L115.738307,437.564507 L115.738307,437.564507 L115.738307,437.564507 Z M106.309491,446.552945 L88.9024476,463.146983 L97.6059696,425.118978 L97.6059696,425.118978 L115.013014,408.524939 L106.309491,446.552945 L106.309491,446.552945 L106.309491,446.552945 Z M157.080036,398.845083 L142.574166,412.673449 L151.277688,374.645443 L151.277688,374.645443 L165.783558,360.817078 L157.080036,398.845083 L157.080036,398.845083 L157.080036,398.845083 Z M72.9459908,438.255925 L63.5171754,429.267488 L157.80533,339.383111 C158.530623,339.383111 158.530623,338.691692 158.530623,338.691692 L260.071713,241.893133 L269.500528,250.881571 L72.9459908,438.255925 L72.9459908,438.255925 L72.9459908,438.255925 Z M393.525716,398.153665 L385.547487,360.817078 L399.328063,373.954025 C399.328063,373.954025 399.328063,373.954025 399.328063,374.645443 L407.306292,411.290612 L393.525716,398.153665 L393.525716,398.153665 L393.525716,398.153665 Z M416.735108,419.587632 L408.756879,382.251044 L426.163923,398.845083 C426.163923,398.845083 426.163923,398.845083 426.163923,399.536501 L434.142151,436.18167 L416.735108,419.587632 L416.735108,419.587632 L416.735108,419.587632 Z M443.570967,445.170108 L434.867445,407.833521 L452.274488,424.42756 C452.274488,424.42756 452.274488,424.42756 452.274488,425.118978 L460.252717,461.764147 L443.570967,445.170108 L443.570967,445.170108 L443.570967,445.170108 Z M484.187403,483.889532 L469.681532,470.061166 L461.703304,432.724579 L474.033293,444.47869 C474.758587,445.170108 474.758587,445.170108 475.483881,445.170108 L484.187403,483.889532 L484.187403,483.889532 L484.187403,483.889532 Z M476.934467,438.255925 L382.646313,348.371548 C382.646313,347.68013 381.921019,347.68013 381.921019,347.68013 L123.716536,101.535221 L133.145351,92.5467838 L486.363282,429.267488 L476.934467,438.255925 L476.934467,438.255925 L476.934467,438.255925 Z M495.066804,427.193233 L495.066804,427.193233 C494.341511,427.193233 494.341511,426.501814 494.341511,426.501814 L482.011522,414.747704 L521.902664,423.044723 L534.957947,435.490252 L495.066804,427.193233 L495.066804,427.193233 L495.066804,427.193233 Z" id="Shape"></path>
            </g>
        </g>
    </g>
</svg>