<?xml version="1.0" encoding="UTF-8" standalone="no"?>
<svg width="533px" height="656px" viewBox="0 0 533 656" version="1.1" xmlns="http://www.w3.org/2000/svg" xmlns:xlink="http://www.w3.org/1999/xlink" xmlns:sketch="http://www.bohemiancoding.com/sketch/ns">
    <!-- Generator: Sketch 3.5.2 (25235) - http://www.bohemiancoding.com/sketch -->
    <title>Group</title>
    <desc>Created with Sketch.</desc>
    <defs></defs>
    <g id="Page-1" stroke="none" stroke-width="1" fill="none" fill-rule="evenodd" sketch:type="MSPage">
        <g id="dove" sketch:type="MSLayerGroup" transform="translate(-20.000000, 3.000000)">
            <g id="Group" transform="translate(316.627645, 322.029040) rotate(-330.000000) translate(-316.627645, -322.029040) translate(91.627645, 80.632279)" sketch:type="MSShapeGroup">
                <path d="M237.441706,124.105724 C237.441706,124.105724 255.314406,122.376108 270.304412,104.503408 C261.079793,129.294573 265.692103,137.366115 265.692103,137.366115" id="Shape" stroke="#17CDBB" stroke-width="9"></path>
                <path d="M17.2039153,174.841132 C17.2039153,174.841132 40.265464,207.703838 17.2039153,260.745401 C56.4085481,244.025778 33.9235382,300.526572 33.9235382,300.526572 C33.9235382,300.526572 67.9393225,283.806949 53.5258546,329.353508 C74.2812484,316.093117 89.2712551,344.920053 89.2712551,344.920053" id="Shape" stroke="#17CDBB" stroke-width="9"></path>
                <path d="M138.277046,331.659663 C138.277046,331.659663 165.950905,348.379286 145.195511,369.134679 C179.787834,396.231999 141.736278,410.645467 141.736278,410.645467 C141.736278,410.645467 183.823605,409.49239 167.103982,439.472403 C228.793625,422.176241 227.064009,456.768565 227.064009,456.768565 C227.064009,456.768565 269.151335,425.635474 311.238661,460.804336" id="Shape" stroke="#17CDBB" stroke-width="9"></path>
                <g transform="translate(0.000000, 0.000000)" id="Shape" stroke="#17CDBB" stroke-width="9">
                    <path d="M422.510634,442.355097 C422.510634,442.355097 447.301799,419.870087 388.49485,411.222006 C407.520627,400.844309 364.856762,392.772767 364.856762,392.772767 C364.856762,392.772767 371.198688,371.440834 329.6879,377.78276 C318.157126,353.568134 275.493261,377.206221 275.493261,377.206221 C275.493261,377.206221 278.952493,366.828525 265.115564,361.063137 C275.493261,339.154666 254.161328,340.307744 254.161328,340.307744 C254.161328,340.307744 266.268641,324.164659 243.207093,324.164659 C243.783631,309.751192 231.676318,308.598114 223.028238,309.751192 C218.415928,310.32773 214.956696,311.480808 214.956696,311.480808 C214.956696,311.480808 205.732076,293.608107 179.211295,311.480808 C150.384359,294.184646 139.430124,332.236202 139.430124,332.236202 C139.430124,332.236202 116.945114,325.894276 113.485881,340.884282 C182.670527,365.098908 76.5874033,397.385077 137.123969,447.543945 C261.079793,521.340901 370.045611,398.538154 449.031415,482.136268 C453.067186,451.003177 422.510634,442.355097 422.510634,442.355097 L422.510634,442.355097 Z"></path>
                    <path d="M112.332804,340.884282 C115.792036,325.894276 138.277046,332.236202 138.277046,332.236202 C138.277046,332.236202 149.231282,294.184646 178.058218,311.480808 C204.578999,293.608107 213.803618,311.480808 213.803618,311.480808 C213.803618,311.480808 217.26285,310.32773 221.87516,309.751192 C221.87516,309.174653 221.87516,308.598114 222.451699,307.445037 C236.288628,205.974222 195.930918,223.270384 367.162917,63.569159 C319.310203,82.5949367 265.115564,126.988418 200.543228,215.775381 C264.539025,77.4060882 258.197099,8.79798083 258.197099,8.79798083 C258.197099,8.79798083 221.87516,139.095731 179.787834,216.351919 C160.185517,226.729616 145.195511,239.990007 132.511659,257.286168 C113.485881,282.653872 99.648952,316.093117 82.9293292,361.063137 C71.9750935,354.721212 61.5973966,351.838518 51.7962384,352.991595 C14.8977605,355.29775 -8.74032696,401.997386 20.0866089,430.824322 C22.9693025,433.707016 25.8519961,436.013171 28.7346897,438.319326 L47.1839287,438.319326 L52.9493158,451.003177 C91.0008712,464.263568 130.782043,448.697022 135.394352,447.543945 C75.4343258,397.385077 180.940911,365.098908 112.332804,340.884282 L112.332804,340.884282 Z"></path>
                    <path d="M83.5058679,361.063137 C99.648952,315.516579 114.06242,282.077333 133.088198,257.286168 L133.088198,257.286168 C133.088198,257.286168 141.736278,218.658074 124.440117,228.459232 C125.016656,198.479219 104.8378,204.821145 104.8378,204.821145 C104.8378,204.821145 103.108184,185.795367 88.1181776,194.443448 C100.802029,155.815354 99.648952,135.05996 99.648952,135.05996 C99.648952,135.05996 88.6947163,146.590734 85.8120228,144.28458 C103.108184,96.4318659 95.0366422,73.9468559 95.0366422,73.9468559 C95.0366422,73.9468559 87.5416389,87.2072465 76.5874033,94.7022498 C74.8577871,76.8295495 66.7862451,19.1756778 65.0566289,34.7422231 C63.3270128,50.3087685 56.4085481,57.8037718 56.4085481,57.8037718 C56.4085481,57.8037718 40.8420028,3.03259366 13.1681443,0.149900067 C37.9593092,37.048378 54.1023933,31.8595295 5.09660227,220.38769 C-13.3526367,317.822734 24.6989187,333.965818 52.3727771,352.415057 L52.3727771,352.415057 C62.1739353,352.415057 72.5516322,354.721212 83.5058679,361.063137 L83.5058679,361.063137 Z"></path>
                    <path d="M29.3112284,438.319326 L29.3112284,438.319326 C29.3112284,438.319326 29.3112284,453.885871 26.4285348,468.299339 C39.6889253,459.651258 53.5258546,451.579716 53.5258546,451.579716 L53.5258546,451.579716"></path>
                    <path d="M53.5258546,451.003177 L47.7604674,438.319326 L29.3112284,438.319326"></path>
                </g>
                <path d="M44.3012351,147.167273 C63.3270128,107.386102 55.8320094,57.2272331 55.8320094,57.2272331" id="Shape" stroke="#17CDBB" stroke-width="9"></path>
                <path d="M76.5874033,94.1257111 C76.5874033,94.1257111 76.0108646,146.014196 50.643161,180.606519" id="Shape" stroke="#17CDBB" stroke-width="9"></path>
                <path d="M57.5616256,203.668067 C78.8935581,174.841132 85.8120228,144.28458 85.8120228,144.28458" id="Shape" stroke="#17CDBB" stroke-width="9"></path>
                <path d="M76.5874033,212.316148 C83.5058679,204.821145 87.5416389,194.443448 87.5416389,194.443448" id="Shape" stroke="#17CDBB" stroke-width="9"></path>
                <path d="M63.9035515,223.846923 C69.0923999,219.811152 73.128171,215.775381 76.5874033,212.316148" id="Shape" stroke="#17CDBB" stroke-width="9"></path>
                <path d="M71.9750935,239.413468 C103.108184,228.459232 104.8378,204.821145 104.8378,204.821145" id="Shape" stroke="#17CDBB" stroke-width="9"></path>
                <path d="M80.0466356,252.09732 C118.098191,252.09732 125.016656,228.459232 125.016656,228.459232" id="Shape" stroke="#17CDBB" stroke-width="9"></path>
                <path d="M88.1181776,268.816943 C125.016656,268.240404 134.817814,246.908471 134.817814,246.908471" id="Shape" stroke="#17CDBB" stroke-width="9"></path>
                <path d="M160.185517,335.695434 C167.680521,318.975811 177.481679,311.480808 177.481679,311.480808" id="Shape" stroke="#17CDBB" stroke-width="9"></path>
                <path d="M176.328601,341.460821 C195.930918,317.246195 213.803618,311.480808 213.803618,311.480808" id="Shape" stroke="#17CDBB" stroke-width="9"></path>
                <path d="M195.930918,354.721212 C219.569005,323.011582 242.630554,324.164659 242.630554,324.164659" id="Shape" stroke="#17CDBB" stroke-width="9"></path>
                <path d="M209.191308,370.287757 C234.559012,340.884282 254.161328,340.307744 254.161328,340.307744" id="Shape" stroke="#17CDBB" stroke-width="9"></path>
                <path d="M223.028238,387.00738 C247.242864,355.29775 264.539025,361.063137 264.539025,361.063137" id="Shape" stroke="#17CDBB" stroke-width="9"></path>
                <path d="M237.441706,405.456619 C258.197099,384.701225 275.493261,377.78276 275.493261,377.78276" id="Shape" stroke="#17CDBB" stroke-width="9"></path>
                <path d="M259.350177,411.222006 C303.167119,377.78276 329.6879,377.78276 329.6879,377.78276" id="Shape" stroke="#17CDBB" stroke-width="9"></path>
                <path d="M294.519039,416.987393 C336.606365,383.548147 364.856762,392.772767 364.856762,392.772767" id="Shape" stroke="#17CDBB" stroke-width="9"></path>
                <path d="M329.6879,426.212013 C361.974069,407.762774 388.49485,411.222006 388.49485,411.222006" id="Shape" stroke="#17CDBB" stroke-width="9"></path>
                <path d="M359.091375,432.553938 C401.75524,431.400861 422.510634,442.355097 422.510634,442.355097" id="Shape" stroke="#17CDBB" stroke-width="9"></path>
                <ellipse id="Oval" fill="#17CEBB" cx="41.9950802" cy="414.681238" rx="9.22461948" ry="9.22461948"></ellipse>
                <path d="M61.0208579,399.691231 C49.4900835,385.854302 25.8519961,403.727003 37.3827705,417.563932" id="Shape" stroke="#17CDBB" stroke-width="9"></path>
            </g>
        </g>
    </g>
</svg>