<?xml version="1.0" encoding="UTF-8" standalone="no"?>
<svg width="546px" height="503px" viewBox="0 0 546 503" version="1.1" xmlns="http://www.w3.org/2000/svg" xmlns:xlink="http://www.w3.org/1999/xlink" xmlns:sketch="http://www.bohemiancoding.com/sketch/ns">
    <!-- Generator: Sketch 3.5.2 (25235) - http://www.bohemiancoding.com/sketch -->
    <title>envelope</title>
    <desc>Created with Sketch.</desc>
    <defs></defs>
    <g id="Page-1" stroke="none" stroke-width="1" fill="none" fill-rule="evenodd" sketch:type="MSPage">
        <g id="envelope" sketch:type="MSLayerGroup" transform="translate(-2.000000, -5.000000)">
            <g id="Group" sketch:type="MSShapeGroup">
                <path d="M328.166667,272.25 C330.916667,269.5 334.583333,265.833333 337.333333,263.083333 C360.25,241.083333 389.583333,213.583333 389.583333,180.583333 C389.583333,141.166667 357.5,110 319,110 C302.5,110 286.916667,115.5 275,125.583333 C262.166667,115.5 247.5,110 231,110 C191.583333,110 160.416667,142.083333 160.416667,180.583333 C160.416667,219.083333 198.916667,253 222.75,273.166667 C240.166667,288.75 265.833333,314.416667 265.833333,315.333333 L275,324.5 L284.166667,315.333333 C285.083333,313.5 315.333333,285.083333 328.166667,272.25 L328.166667,272.25 Z M239.25,253 C219.083333,235.583333 186.083333,206.25 186.083333,179.666667 C186.083333,154.916667 206.25,134.75 231,134.75 C243.833333,134.75 256.666667,140.25 264.916667,150.333333 L275,162.25 L285.083333,150.333333 C293.333333,140.25 306.166667,134.75 319,134.75 C343.75,134.75 363.916667,154.916667 363.916667,179.666667 C363.916667,201.666667 339.166667,225.5 319.916667,243.833333 C316.25,247.5 313.5,250.25 309.833333,253.916667 C301.583333,262.166667 285.083333,277.75 275,287.833333 C265.833333,277.75 251.166667,264 239.25,253 L239.25,253 Z" id="Shape" fill="#F8848B"></path>
                <path d="M547.25,205.333333 C547.25,200.75 545.416667,197.083333 541.75,194.333333 L282.333333,8.25 C277.75,4.58333333 271.333333,4.58333333 266.75,8.25 L8.25,195.25 C4.58333333,198 2.75,201.666667 2.75,206.25 L2.75,206.25 L2.75,507.833333 L546.333333,507.833333 L547.25,205.333333 L547.25,205.333333 L547.25,205.333333 Z M29.3333333,228.25 L179.666667,319.916667 L29.3333333,463.833333 L29.3333333,228.25 L29.3333333,228.25 Z M202.583333,333.666667 L268.583333,374 C270.416667,374.916667 273.166667,375.833333 275,375.833333 C276.833333,375.833333 279.583333,374.916667 281.416667,374 L348.333333,334.583333 L501.416667,481.25 L48.5833333,481.25 L202.583333,333.666667 L202.583333,333.666667 Z M371.25,320.833333 L378.583333,316.25 L520.666667,228.25 L520.666667,462.916667 L371.25,320.833333 L371.25,320.833333 Z M275,34.8333333 L510.583333,204.416667 L364.833333,294.25 L275,347.416667 L39.4166667,204.416667 L275,34.8333333 L275,34.8333333 Z" id="Shape" fill="#F9848B"></path>
            </g>
        </g>
    </g>
</svg>