<?xml version="1.0" encoding="UTF-8" standalone="no"?>
<svg width="495px" height="451px" viewBox="0 0 495 451" version="1.1" xmlns="http://www.w3.org/2000/svg" xmlns:xlink="http://www.w3.org/1999/xlink" xmlns:sketch="http://www.bohemiancoding.com/sketch/ns">
    <!-- Generator: Sketch 3.5.2 (25235) - http://www.bohemiancoding.com/sketch -->
    <title>Group</title>
    <desc>Created with Sketch.</desc>
    <defs></defs>
    <g id="Page-1" stroke="none" stroke-width="1" fill="none" fill-rule="evenodd" sketch:type="MSPage">
        <g id="flower" sketch:type="MSLayerGroup" fill="#FE552B">
            <g id="Group" sketch:type="MSShapeGroup">
                <path d="M493.901099,179.120879 C493.351648,178.021978 492.252747,176.923077 491.153846,176.923077 C477.417582,176.923077 469.725275,162.087912 460.384615,144.505495 C454.340659,133.516484 447.747253,120.879121 438.406593,111.538462 C446.648352,90.1098901 430.714286,74.1758242 416.428571,59.3406593 C404.340659,47.2527473 394.450549,36.8131868 399.395604,26.3736264 C399.945055,25.2747253 399.945055,24.1758242 398.846154,23.0769231 C397.747253,21.978022 396.648352,21.978022 395.549451,22.5274725 C381.263736,30.2197802 363.681319,28.5714286 346.648352,26.9230769 C337.307692,25.8241758 328.516484,25.2747253 320.824176,25.8241758 C320.824176,25.2747253 320.274725,24.7252747 320.274725,24.1758242 C312.582418,17.032967 302.142857,18.6813187 292.802198,20.3296703 C283.461538,21.978022 275.21978,23.0769231 269.725275,16.4835165 C269.175824,15.3846154 267.527473,15.3846154 266.428571,15.3846154 C265.32967,15.9340659 264.78022,17.032967 264.78022,18.1318681 C264.78022,23.0769231 258.186813,26.9230769 251.593407,30.2197802 C245.549451,33.5164835 240.054945,36.2637363 238.956044,41.2087912 C229.065934,40.6593407 218.626374,43.4065934 208.736264,45.6043956 C202.692308,46.7032967 197.197802,48.3516484 191.703297,48.9010989 C182.912088,38.4615385 118.626374,-34.6153846 2.69230769,20.8791209 C1.59340659,21.4285714 1.04395604,22.5274725 1.04395604,23.6263736 C1.04395604,24.7252747 2.14285714,25.8241758 3.24175824,25.8241758 C50.4945055,37.9120879 62.5824176,63.7362637 76.3186813,93.4065934 C86.7582418,116.483516 98.8461538,142.307692 129.065934,165.384615 C125.769231,167.582418 121.373626,169.230769 116.428571,169.230769 C115.32967,169.230769 114.230769,170.32967 113.681319,171.428571 C113.681319,172.527473 114.230769,174.175824 115.32967,174.175824 C132.362637,179.67033 137.857143,193.406593 143.351648,207.692308 C143.351648,208.241758 143.901099,208.791209 143.901099,209.340659 C130.714286,202.747253 87.3076923,203.296703 51.5934066,226.923077 C26.3186813,243.956044 -3.35164835,278.571429 0.494505495,348.351648 C0.494505495,349.450549 1.59340659,350.549451 2.69230769,351.098901 L3.24175824,351.098901 C4.34065934,351.098901 4.89010989,350.549451 5.43956044,350 C18.0769231,329.67033 41.1538462,324.175824 67.5274725,318.131868 C80.7142857,314.835165 94.4505495,311.538462 108.186813,306.593407 C94.4505495,352.747253 108.736264,379.120879 121.373626,402.197802 C127.967033,413.736264 134.010989,424.725275 135.10989,436.813187 C135.10989,437.912088 136.208791,439.010989 137.307692,439.010989 L137.857143,439.010989 C138.956044,439.010989 140.054945,438.461538 140.604396,437.362637 C144.450549,429.120879 149.945055,425.274725 159.285714,418.681319 C170.824176,410.989011 186.758242,400 208.736264,375.274725 C215.32967,390.10989 226.318681,401.098901 236.208791,412.087912 C247.197802,423.626374 257.637363,434.615385 262.032967,448.351648 C262.582418,449.450549 263.681319,450.549451 264.78022,450.549451 L265.32967,450.549451 C266.428571,450.549451 267.527473,449.450549 267.527473,447.802198 C268.626374,422.527473 278.516484,409.340659 288.406593,395.604396 C297.197802,384.065934 305.989011,371.978022 309.835165,351.648352 C324.67033,353.846154 340.054945,356.043956 347.197802,362.637363 C347.747253,363.186813 348.296703,363.186813 348.846154,363.186813 C349.395604,363.186813 349.945055,363.186813 350.494505,362.637363 C351.593407,362.087912 352.142857,360.989011 351.593407,359.89011 C348.296703,345.604396 361.483516,337.912088 384.010989,326.373626 C412.032967,311.538462 447.197802,293.406593 435.659341,247.252747 C437.307692,247.802198 438.956044,247.802198 440.604396,247.802198 L442.802198,247.802198 C455.989011,246.153846 463.681319,229.120879 471.373626,212.637363 C477.417582,199.450549 484.010989,185.714286 492.252747,181.868132 C493.901099,181.318681 494.450549,180.21978 493.901099,179.120879 L493.901099,179.120879 Z M346.098901,32.967033 C361.483516,34.6153846 377.967033,36.2637363 392.802198,30.7692308 C391.703297,42.3076923 401.593407,52.7472527 412.582418,63.7362637 C425.769231,76.9230769 439.505495,90.6593407 434.010989,107.692308 C421.923077,97.2527473 405.43956,92.3076923 381.813187,99.4505495 C381.263736,99.4505495 381.263736,100 380.714286,100 C372.472527,90.6593407 362.582418,83.5164835 361.483516,82.967033 L360.934066,82.967033 C357.637363,76.3736264 353.791209,70.3296703 348.296703,65.9340659 C329.065934,47.8021978 303.241758,49.4505495 302.692308,49.4505495 C302.692308,49.4505495 302.692308,49.4505495 302.142857,49.4505495 C305.989011,29.6703297 321.373626,30.2197802 346.098901,32.967033 L346.098901,32.967033 Z M391.703297,129.67033 C395.549451,130.769231 397.197802,134.615385 398.846154,141.208791 C401.043956,147.802198 403.241758,155.494505 410.934066,157.692308 C407.637363,164.285714 409.285714,174.725275 410.934066,186.263736 C414.230769,209.340659 418.076923,235.164835 389.505495,244.505495 C388.956044,244.505495 388.406593,245.054945 387.857143,245.604396 C383.461538,243.406593 379.065934,241.208791 375.21978,239.010989 L375.21978,239.010989 C402.692308,184.615385 379.065934,153.846154 373.021978,147.252747 C384.010989,142.857143 390.054945,136.813187 391.703297,129.67033 L391.703297,129.67033 Z M259.835165,331.868132 C262.032967,335.164835 264.78022,337.912088 268.076923,340.10989 C245,350 227.417582,332.967033 208.186813,314.835165 C193.901099,301.098901 178.516484,286.813187 160.934066,285.164835 C162.032967,279.120879 158.186813,270.32967 154.340659,259.340659 C148.846154,245.054945 142.252747,226.923077 148.846154,220.32967 C153.791209,230.769231 160.384615,239.56044 174.120879,242.857143 C173.021978,242.857143 171.923077,243.406593 170.824176,243.406593 C169.725275,243.406593 169.175824,244.505495 168.626374,245.054945 C168.076923,246.153846 168.626374,247.252747 169.175824,247.802198 C177.417582,256.593407 187.307692,260.989011 198.296703,263.186813 L198.296703,264.285714 C199.395604,278.021978 213.131868,290.659341 236.208791,298.901099 C243.351648,301.648352 251.043956,303.296703 258.736264,304.945055 C255.43956,316.483516 255.43956,324.725275 259.835165,331.868132 L259.835165,331.868132 Z M237.857143,294.505495 C217.527473,287.362637 204.89011,276.373626 203.791209,264.835165 C212.582418,266.483516 221.373626,266.483516 230.164835,267.032967 C251.593407,267.582418 271.373626,268.681319 285.10989,283.516484 C285.659341,284.065934 286.208791,284.615385 287.307692,284.615385 L287.857143,284.615385 C288.956044,284.615385 289.505495,284.065934 290.054945,282.967033 C302.142857,257.142857 341.153846,265.384615 372.472527,271.428571 C375.769231,271.978022 378.516484,272.527473 381.263736,273.076923 C346.098901,306.043956 281.263736,309.89011 237.857143,294.505495 L237.857143,294.505495 Z M373.021978,265.384615 C341.153846,258.791209 301.593407,251.098901 286.758242,276.373626 C271.923077,262.637363 251.043956,262.087912 230.714286,260.989011 C211.483516,260.43956 192.252747,259.340659 177.417582,247.802198 C188.406593,245.604396 198.846154,243.956044 208.736264,241.758242 C289.505495,226.373626 343.351648,215.934066 412.582418,268.681319 C405.43956,271.978022 388.956044,268.681319 373.021978,265.384615 L373.021978,265.384615 Z M209.835165,195.604396 C203.791209,185.714286 206.538462,174.725275 208.736264,163.186813 C210.384615,154.945055 212.032967,146.703297 211.483516,137.912088 C215.32967,142.307692 218.076923,146.703297 218.076923,151.098901 C217.527473,159.89011 218.626374,171.428571 226.318681,178.021978 C230.714286,181.868132 235.659341,182.967033 242.252747,182.417582 C248.296703,193.406593 262.032967,198.901099 274.120879,203.296703 C286.758242,208.241758 297.747253,212.637363 297.747253,221.428571 C297.747253,222.527473 298.296703,223.076923 298.846154,223.626374 C289.505495,223.626374 280.164835,224.725275 270.824176,225.824176 C264.78022,205.494505 240.604396,202.197802 219.175824,199.450549 C215.879121,198.901099 213.131868,198.351648 210.384615,198.351648 C210.384615,197.252747 210.384615,196.703297 209.835165,195.604396 L209.835165,195.604396 Z M264.78022,67.032967 L265.879121,67.032967 C266.428571,67.032967 266.978022,66.4835165 267.527473,65.3846154 C284.010989,56.043956 302.142857,54.3956044 303.791209,54.3956044 L305.43956,54.3956044 C310.934066,54.3956044 330.714286,55.4945055 345.549451,69.2307692 C357.637363,80.7692308 363.681319,97.8021978 363.681319,120.32967 C363.681319,128.021978 360.384615,134.615385 355.43956,139.56044 C354.89011,137.912088 354.340659,136.813187 353.241758,135.164835 C348.296703,126.373626 343.901099,116.483516 344.450549,96.1538462 C344.450549,95.0549451 343.901099,93.956044 342.252747,93.4065934 C302.142857,81.8681319 267.527473,90.6593407 256.538462,106.043956 C254.340659,109.340659 253.241758,112.637363 253.241758,115.934066 C252.692308,116.483516 252.142857,117.582418 252.692308,118.131868 C254.340659,130.21978 253.791209,137.912088 252.692308,142.307692 C245,135.164835 239.505495,125.824176 239.505495,112.087912 C239.505495,99.4505495 242.802198,89.5604396 248.296703,81.8681319 L248.846154,81.3186813 C252.692308,75.8241758 258.736264,70.8791209 264.78022,67.032967 L264.78022,67.032967 Z M370.274725,152.197802 C375.769231,158.241758 396.648352,186.263736 371.373626,237.362637 C371.373626,237.362637 371.373626,237.362637 371.373626,237.912088 C348.296703,228.021978 325.769231,224.175824 302.692308,224.175824 C308.186813,221.978022 335.10989,209.340659 337.307692,185.714286 C340.604396,180.769231 344.450549,181.318681 351.593407,181.868132 C356.538462,182.417582 362.582418,182.967033 366.428571,179.120879 C370.274725,174.725275 371.373626,166.483516 370.274725,152.197802 L370.274725,152.197802 Z M302.692308,182.417582 C297.747253,171.978022 286.208791,165.384615 274.67033,158.241758 C268.626374,154.945055 263.131868,151.098901 257.637363,147.252747 C258.186813,145.604396 259.285714,140.10989 259.285714,131.868132 C276.868132,152.747253 314.78022,141.758242 330.164835,134.615385 C328.516484,142.307692 327.417582,153.296703 332.912088,156.593407 L332.362637,157.142857 C320.274725,163.736264 307.637363,170.879121 302.692308,182.417582 L302.692308,182.417582 Z M312.582418,121.428571 C312.032967,120.879121 311.483516,120.32967 310.384615,120.32967 L310.384615,120.32967 C292.802198,121.978022 285.659341,118.681319 284.56044,115.934066 C284.010989,114.835165 285.10989,113.186813 287.307692,112.087912 C295,107.692308 312.032967,109.340659 329.615385,128.571429 C325.769231,130.769231 319.175824,133.516484 311.483516,135.164835 L312.582418,123.626374 C313.131868,122.527473 313.131868,121.978022 312.582418,121.428571 L312.582418,121.428571 Z M307.087912,125.824176 L305.989011,135.714286 L305.989011,136.263736 C299.945055,137.362637 293.351648,138.461538 286.758242,137.912088 C287.307692,136.263736 287.857143,130.21978 286.758242,123.626374 C292.252747,125.824176 298.846154,126.373626 307.087912,125.824176 L307.087912,125.824176 Z M337.857143,153.296703 C337.857143,152.747253 337.307692,151.648352 336.208791,151.648352 C333.461538,150.549451 334.56044,139.010989 337.307692,129.67033 L337.307692,129.67033 L337.307692,129.67033 C337.307692,129.67033 337.307692,129.67033 337.307692,129.120879 L337.307692,128.571429 L337.307692,128.021978 C337.307692,128.021978 337.307692,127.472527 336.758242,127.472527 L336.758242,127.472527 C314.78022,101.648352 293.351648,102.747253 285.10989,107.692308 C280.714286,110.43956 278.516484,114.285714 279.615385,118.131868 C280.164835,119.230769 280.714286,119.78022 281.263736,120.879121 L281.263736,121.978022 C284.010989,129.120879 281.813187,138.461538 281.813187,138.461538 C274.120879,137.362637 267.527473,134.065934 262.582418,128.021978 C258.186813,121.978022 257.637363,116.483516 261.483516,110.989011 C270.824176,97.8021978 302.692308,90.1098901 338.956044,100 C338.956044,120.32967 343.901099,130.21978 348.846154,139.56044 C349.945055,141.208791 350.494505,143.406593 351.593407,145.054945 C347.197802,147.802198 342.802198,150.549451 337.857143,153.296703 L337.857143,153.296703 Z M234.010989,113.186813 C234.010989,140.659341 254.340659,152.747253 271.923077,163.186813 C286.758242,171.978022 299.945055,179.67033 299.945055,195.054945 L299.395604,211.538462 C294.450549,206.043956 285.659341,202.197802 276.318681,198.901099 C263.681319,193.956044 251.043956,189.010989 246.648352,179.120879 C246.098901,178.021978 245,177.472527 243.901099,177.472527 C238.406593,178.571429 233.461538,177.472527 230.164835,174.725275 C225.769231,170.879121 223.571429,162.637363 223.571429,152.197802 C224.120879,145.054945 219.175824,139.010989 214.230769,133.516484 C208.736264,126.923077 203.791209,120.879121 207.087912,112.637363 C207.637363,111.538462 208.186813,110.989011 208.186813,109.89011 C208.736264,109.340659 209.285714,108.791209 209.285714,107.692308 C220.824176,86.8131868 234.56044,84.0659341 241.153846,84.0659341 C236.758242,91.2087912 234.010989,101.098901 234.010989,113.186813 L234.010989,113.186813 Z M386.758242,126.373626 C385.659341,134.065934 378.516484,140.10989 365.879121,145.054945 C364.78022,145.604396 363.681319,146.703297 364.230769,147.802198 C365.879121,162.637363 365.32967,171.428571 362.032967,174.725275 C359.835165,176.923077 355.989011,176.373626 351.593407,175.824176 C345,175.274725 336.758242,174.175824 331.813187,182.967033 C331.813187,183.516484 331.263736,183.516484 331.263736,184.065934 C329.615385,200.549451 313.131868,211.538462 304.340659,216.483516 L304.89011,195.054945 L304.89011,195.054945 L304.89011,195.054945 C304.89011,179.120879 319.175824,170.879121 334.56044,161.538462 C351.043956,151.648352 368.626374,141.758242 368.626374,120.879121 C368.626374,110.43956 366.978022,100.549451 364.78022,92.3076923 C373.571429,99.4505495 388.406593,113.736264 386.758242,126.373626 L386.758242,126.373626 Z M254.340659,35.7142857 C260.384615,32.967033 266.428571,29.1208791 269.175824,24.1758242 C276.318681,29.1208791 285.659341,27.4725275 293.901099,26.3736264 C301.593407,25.2747253 309.285714,23.6263736 314.78022,27.4725275 C305.43956,29.6703297 298.846154,36.2637363 296.648352,49.4505495 L296.648352,50 C289.505495,51.0989011 277.417582,53.8461538 265.879121,60.4395604 C261.483516,48.9010989 253.791209,43.956044 244.450549,42.3076923 C246.098901,40.1098901 250.494505,37.9120879 254.340659,35.7142857 L254.340659,35.7142857 Z M209.835165,51.0989011 C232.912088,46.1538462 253.241758,41.7582418 261.483516,63.1868132 C255.43956,67.032967 249.395604,71.978022 245,78.021978 C238.956044,77.4725275 219.725275,76.9230769 204.89011,104.395604 C171.373626,106.043956 159.285714,125.274725 148.846154,142.307692 C141.153846,133.516484 147.747253,119.78022 158.736264,100 C159.285714,98.9010989 160.384615,97.2527473 160.934066,96.1538462 L161.483516,96.1538462 C162.582418,95.6043956 163.681319,93.956044 163.131868,92.8571429 C170.274725,79.6703297 176.318681,66.4835165 173.021978,55.4945055 C184.010989,57.1428571 197.197802,53.8461538 209.835165,51.0989011 L209.835165,51.0989011 Z M81.2637363,91.2087912 C68.0769231,63.1868132 55.989011,36.2637363 11.4835165,22.5274725 C113.681319,-22.5274725 170.824176,34.0659341 184.56044,50 C179.065934,50.5494505 173.571429,50 169.175824,48.3516484 C168.076923,47.8021978 166.978022,48.3516484 165.879121,48.9010989 C164.78022,49.4505495 164.78022,51.0989011 165.32967,52.1978022 C170.274725,60.989011 166.428571,73.0769231 159.835165,85.1648352 C155.989011,79.6703297 143.901099,60.4395604 147.197802,42.8571429 C147.747253,41.2087912 146.648352,40.1098901 145,39.5604396 C143.351648,39.010989 142.252747,40.1098901 141.703297,41.7582418 C139.505495,52.7472527 142.252747,63.7362637 146.098901,72.5274725 C119.725275,47.8021978 73.021978,26.3736264 70.8241758,25.2747253 C69.7252747,24.7252747 68.0769231,25.2747253 66.978022,26.3736264 C66.4285714,28.021978 66.978022,29.1208791 68.0769231,30.2197802 C68.6263736,30.2197802 108.736264,48.9010989 135.10989,70.3296703 C124.120879,64.8351648 107.637363,60.4395604 84.010989,60.4395604 L81.8131868,60.4395604 C80.1648352,60.4395604 79.0659341,61.5384615 79.0659341,63.1868132 C79.0659341,64.8351648 80.1648352,65.9340659 81.8131868,65.9340659 L81.8131868,65.9340659 C119.725275,65.3846154 137.857143,76.9230769 146.648352,85.7142857 C139.505495,83.5164835 129.615385,82.4175824 117.527473,87.3626374 C115.879121,87.9120879 115.32967,89.5604396 115.879121,91.2087912 C116.428571,92.8571429 118.076923,93.4065934 119.725275,92.8571429 C138.406593,85.1648352 150.494505,93.4065934 153.241758,95.6043956 C152.692308,96.1538462 152.142857,97.2527473 152.142857,97.8021978 C141.703297,115.934066 131.263736,135.164835 143.901099,147.802198 C140.054945,153.846154 136.758242,158.791209 132.362637,162.637363 C103.791209,139.56044 91.7032967,113.736264 81.2637363,91.2087912 L81.2637363,91.2087912 Z M125.769231,173.076923 C128.516484,171.978022 131.263736,170.32967 134.010989,168.681319 C134.56044,168.681319 134.56044,169.230769 135.10989,169.230769 C136.208791,169.230769 136.758242,168.681319 137.307692,168.131868 C137.857143,167.582418 137.857143,166.483516 137.857143,165.934066 C142.802198,161.538462 146.648352,155.494505 150.494505,149.450549 C151.043956,149.450549 151.593407,148.901099 151.593407,148.351648 C152.142857,147.802198 152.142857,147.252747 152.142857,146.153846 C152.142857,146.153846 152.142857,145.604396 152.692308,145.604396 C162.582418,129.120879 173.021978,112.637363 202.142857,109.89011 C199.945055,114.835165 200.494505,118.681319 201.593407,122.527473 L201.593407,124.725275 C208.736264,136.263736 205.989011,149.450549 203.241758,161.538462 C201.043956,173.626374 198.296703,185.714286 204.340659,196.703297 C192.252747,194.505495 181.813187,191.208791 178.516484,182.967033 C177.967033,181.318681 176.318681,180.769231 174.67033,181.318681 C173.021978,181.868132 172.472527,183.516484 173.021978,185.164835 C179.065934,199.450549 197.747253,201.648352 217.527473,204.395604 C237.857143,207.142857 258.736264,209.89011 264.230769,225.824176 C246.648352,228.021978 227.417582,231.868132 207.087912,235.714286 C198.846154,237.362637 190.054945,239.010989 181.263736,240.659341 C181.263736,239.010989 180.164835,237.912088 179.065934,237.362637 C159.835165,234.615385 154.89011,220.879121 148.846154,205.494505 C144.450549,193.956044 138.956044,180.769231 125.769231,173.076923 L125.769231,173.076923 Z M68.0769231,313.186813 C43.3516484,319.230769 21.3736264,324.175824 7.08791209,341.208791 C5.98901099,279.67033 32.3626374,247.802198 55.989011,232.417582 C88.956044,210.43956 130.714286,209.340659 142.802198,215.384615 C143.901099,215.934066 145.549451,215.384615 146.648352,214.285714 L146.648352,214.285714 C146.648352,214.835165 147.197802,214.835165 147.197802,215.384615 C142.252747,219.230769 140.604396,224.725275 141.153846,231.868132 C132.362637,228.021978 110.934066,220.879121 87.8571429,229.120879 C86.2087912,229.67033 85.6593407,231.318681 86.2087912,232.417582 C86.7582418,234.065934 88.4065934,234.615385 89.5054945,234.065934 C101.593407,229.67033 113.681319,230.21978 123.571429,231.868132 C115.879121,232.967033 106.538462,235.164835 97.1978022,239.010989 C71.9230769,249.450549 53.2417582,268.131868 45.5494505,291.208791 C45,292.857143 45.5494505,293.956044 47.1978022,294.505495 L48.2967033,294.505495 C49.3956044,294.505495 50.4945055,293.956044 51.043956,292.857143 C60.3846154,264.835165 82.9120879,250.549451 99.9450549,243.956044 C107.637363,240.659341 115.32967,239.010989 121.923077,237.912088 C112.582418,241.758242 102.142857,249.450549 92.2527473,262.637363 C91.1538462,263.736264 91.7032967,265.384615 92.8021978,266.483516 C93.9010989,267.582418 95.5494505,267.032967 96.6483516,265.934066 C108.736264,249.450549 122.472527,242.857143 131.813187,240.659341 C127.417582,245.054945 122.472527,251.648352 118.076923,262.087912 C117.527473,263.736264 118.076923,264.835165 119.725275,265.934066 L120.824176,265.934066 C121.923077,265.934066 123.021978,265.384615 123.571429,264.285714 C131.813187,246.153846 140.054945,241.208791 143.351648,239.56044 C145,246.703297 147.747253,253.846154 150.494505,261.538462 C152.142857,265.384615 153.791209,269.78022 154.89011,274.175824 C142.252747,286.263736 129.065934,293.956044 115.879121,300 C115.32967,300 114.230769,300.549451 113.681319,301.098901 C97.7472527,306.593407 82.3626374,309.89011 68.0769231,313.186813 L68.0769231,313.186813 Z M205.43956,371.428571 C183.461538,396.703297 167.527473,407.142857 155.989011,414.835165 C148.846154,419.78022 143.351648,423.626374 138.956044,429.120879 C136.208791,418.681319 131.263736,409.340659 125.769231,400 C113.131868,376.923077 98.8461538,351.098901 116.428571,304.945055 C129.615385,299.450549 142.802198,291.208791 154.89011,280.21978 C155.43956,282.967033 155.43956,285.164835 154.340659,286.263736 C153.241758,286.813187 153.241758,288.461538 153.241758,289.56044 C153.791209,290.659341 154.89011,291.208791 155.989011,291.208791 C157.637363,291.208791 159.835165,291.208791 161.483516,291.758242 C156.538462,293.956044 148.846154,300 140.604396,313.736264 C140.054945,314.835165 140.054945,316.483516 141.703297,317.582418 C142.252747,317.582418 142.802198,318.131868 143.351648,318.131868 C144.450549,318.131868 145,317.582418 145.549451,317.032967 C153.241758,304.945055 159.285714,299.450549 163.131868,297.252747 C159.835165,306.043956 151.593407,331.318681 148.296703,376.923077 C148.296703,378.571429 149.395604,379.67033 151.043956,379.67033 L151.043956,379.67033 C152.692308,379.67033 153.791209,378.571429 153.791209,376.923077 C156.538462,345.054945 160.934066,323.076923 164.78022,309.89011 L164.78022,312.637363 C164.78022,326.923077 164.78022,341.208791 174.120879,358.241758 C174.67033,359.340659 176.318681,359.89011 177.967033,359.340659 C179.065934,358.791209 179.615385,357.142857 179.065934,355.494505 C170.824176,339.56044 170.824176,326.373626 170.824176,312.087912 L170.824176,304.945055 C173.571429,309.340659 177.417582,313.186813 184.010989,315.934066 C185.659341,316.483516 186.758242,315.934066 187.307692,314.285714 C187.857143,312.637363 187.307692,311.538462 185.659341,310.989011 C175.769231,307.142857 172.472527,297.802198 171.923077,293.956044 C183.461538,298.901099 193.901099,309.340659 204.340659,319.230769 C204.89011,319.78022 205.989011,320.879121 206.538462,321.428571 C206.538462,321.428571 206.538462,321.978022 205.989011,321.978022 C200.494505,341.758242 201.593407,357.692308 206.538462,370.879121 C205.989011,370.32967 205.989011,370.879121 205.43956,371.428571 L205.43956,371.428571 Z M284.010989,392.307692 C275.21978,404.395604 266.428571,416.483516 263.131868,436.263736 C257.637363,425.824176 249.395604,417.032967 240.604396,408.241758 C220.824176,387.912088 201.043956,367.032967 211.483516,324.725275 C221.923077,334.615385 232.362637,343.406593 244.450549,346.703297 C240.054945,350 234.010989,355.494505 230.714286,364.835165 C230.164835,366.483516 230.714286,367.582418 232.362637,368.131868 L233.461538,368.131868 C234.56044,368.131868 235.659341,367.582418 236.208791,366.483516 C240.054945,357.142857 245.549451,352.197802 249.395604,350 C247.747253,357.692308 246.098901,372.527473 249.395604,392.857143 C249.395604,393.956044 251.043956,395.054945 252.142857,395.054945 L252.692308,395.054945 C254.340659,395.054945 255.43956,393.406593 254.89011,391.758242 C252.692308,378.021978 253.241758,366.483516 253.791209,358.791209 C255.43956,363.186813 258.186813,368.131868 262.032967,373.626374 C263.131868,374.725275 264.78022,375.274725 265.879121,374.175824 C266.978022,373.076923 267.527473,371.428571 266.428571,370.32967 C259.285714,360.43956 257.087912,351.648352 256.538462,347.802198 C262.032967,347.802198 267.527473,346.153846 273.571429,343.406593 C274.120879,343.406593 274.120879,342.857143 274.67033,342.307692 C283.461538,346.153846 294.450549,348.351648 305.989011,350 C301.043956,369.78022 292.252747,381.318681 284.010989,392.307692 L284.010989,392.307692 Z M430.714286,248.351648 C441.703297,290.659341 409.835165,307.142857 381.813187,321.428571 C363.681319,330.769231 346.098901,339.56044 346.098901,354.945055 C336.758242,350 324.120879,348.351648 310.384615,346.153846 C291.153846,343.406593 270.824176,340.10989 264.230769,328.571429 C260.934066,323.076923 260.934066,315.384615 264.230769,306.043956 C273.021978,307.142857 282.362637,308.241758 291.153846,308.241758 C326.318681,308.241758 363.131868,297.802198 385.659341,274.725275 C386.208791,274.175824 386.208791,273.626374 386.208791,273.076923 C401.593407,275.824176 413.131868,276.373626 418.076923,269.78022 C419.175824,268.681319 418.626374,267.032967 417.527473,265.934066 C409.285714,259.340659 401.043956,253.846154 392.802198,248.901099 C403.241758,245.054945 409.835165,238.461538 413.681319,230.769231 C419.725275,237.912088 425.21978,242.307692 430.714286,245.054945 C431.263736,246.153846 430.714286,247.252747 430.714286,248.351648 L430.714286,248.351648 Z M466.978022,210.43956 C459.835165,225.274725 452.692308,241.208791 442.802198,242.307692 C436.208791,243.406593 427.967033,237.912088 418.076923,226.923077 C417.527473,226.373626 416.978022,226.373626 416.428571,225.824176 C420.274725,213.186813 418.076923,198.351648 416.428571,185.714286 C414.78022,173.076923 413.131868,161.538462 417.527473,157.692308 C418.626374,157.142857 418.626374,155.494505 418.076923,154.395604 C417.527473,153.296703 416.428571,152.747253 415.32967,152.747253 C407.637363,153.296703 405.989011,147.802198 403.791209,139.56044 C401.593407,132.967033 399.395604,125.274725 391.703297,124.175824 C391.703297,117.582418 388.406593,110.43956 383.461538,104.395604 C406.538462,97.8021978 421.373626,103.296703 432.362637,113.736264 C432.362637,113.736264 432.362637,113.736264 432.912088,114.285714 C441.703297,123.076923 448.296703,135.164835 454.89011,147.252747 C463.131868,162.637363 470.824176,177.472527 483.461538,181.318681 C477.417582,187.912088 472.472527,198.901099 466.978022,210.43956 L466.978022,210.43956 Z" id="Shape"></path>
                <path d="M393.351648,290.10989 C381.263736,302.747253 369.725275,306.593407 359.835165,309.89011 C352.692308,312.087912 346.098901,314.285714 341.703297,319.78022 C340.604396,320.879121 341.153846,322.527473 342.252747,323.626374 C342.802198,324.175824 343.351648,324.175824 343.901099,324.175824 C344.450549,324.175824 345.549451,323.626374 346.098901,323.076923 C349.395604,318.681319 354.89011,317.032967 362.032967,314.835165 C371.923077,311.538462 384.56044,307.692308 397.747253,293.406593 C398.846154,292.307692 398.846154,290.659341 397.747253,289.56044 C396.098901,289.010989 394.450549,289.010989 393.351648,290.10989 L393.351648,290.10989 Z" id="Shape"></path>
                <path d="M265.32967,288.461538 C240.054945,288.461538 228.516484,275.824176 228.516484,275.824176 C227.417582,274.725275 225.769231,274.725275 224.67033,275.824176 C223.571429,276.923077 223.571429,278.571429 224.67033,279.67033 C225.21978,280.21978 237.857143,294.505495 265.879121,294.505495 C267.527473,294.505495 268.626374,293.406593 268.626374,291.758242 C268.626374,290.10989 266.978022,288.461538 265.32967,288.461538 L265.32967,288.461538 Z" id="Shape"></path>
                <path d="M436.208791,203.296703 C437.307692,202.197802 437.307692,200.549451 435.659341,199.450549 C434.56044,198.351648 432.912088,198.351648 431.813187,200 C428.516484,204.395604 424.120879,214.835165 433.461538,224.725275 C434.010989,225.274725 434.56044,225.824176 435.659341,225.824176 C436.208791,225.824176 436.758242,225.824176 437.307692,225.274725 C438.406593,224.175824 438.406593,222.527473 437.307692,221.428571 C429.615385,211.538462 435.659341,203.846154 436.208791,203.296703 L436.208791,203.296703 Z" id="Shape"></path>
                <path d="M426.868132,119.78022 C425.769231,119.230769 424.120879,119.78022 423.021978,120.879121 C422.472527,121.978022 423.021978,123.626374 424.120879,124.725275 C424.120879,124.725275 437.857143,131.868132 444.450549,152.747253 C445,153.846154 446.098901,154.395604 447.197802,154.395604 L448.296703,154.395604 C449.945055,153.846154 450.494505,152.197802 449.945055,151.098901 C442.252747,128.021978 427.417582,120.32967 426.868132,119.78022 L426.868132,119.78022 Z" id="Shape"></path>
                <path d="M274.67033,78.021978 C275.21978,78.021978 275.769231,78.021978 276.318681,77.4725275 C276.318681,77.4725275 300.494505,59.8901099 321.923077,74.7252747 C323.021978,75.8241758 324.67033,75.2747253 325.769231,74.1758242 C326.868132,73.0769231 326.318681,71.4285714 325.21978,70.3296703 C300.494505,53.2967033 273.571429,73.0769231 273.571429,73.0769231 C272.472527,74.1758242 271.923077,75.8241758 273.021978,76.9230769 C273.021978,77.4725275 274.120879,78.021978 274.67033,78.021978 L274.67033,78.021978 Z" id="Shape"></path>
                <path d="M391.703297,66.4835165 C393.901099,69.7802198 396.648352,73.6263736 404.340659,78.5714286 C404.89011,78.5714286 405.43956,79.1208791 405.989011,79.1208791 C407.087912,79.1208791 407.637363,78.5714286 408.186813,78.021978 C408.736264,76.9230769 408.736264,75.2747253 407.087912,74.1758242 C400.494505,70.3296703 398.296703,67.032967 396.098901,63.7362637 C394.450549,60.989011 392.252747,57.6923077 387.857143,54.9450549 C386.758242,53.8461538 385.10989,54.3956044 384.010989,55.4945055 C382.912088,56.5934066 383.461538,58.2417582 384.56044,59.3406593 C388.406593,61.5384615 390.054945,63.7362637 391.703297,66.4835165 L391.703297,66.4835165 Z" id="Shape"></path>
                <path d="M201.043956,63.7362637 C203.241758,64.8351648 205.43956,65.3846154 207.637363,65.3846154 C211.483516,65.3846154 215.32967,64.2857143 218.626374,62.6373626 C224.67033,60.4395604 231.263736,58.2417582 237.857143,61.5384615 C238.956044,62.0879121 240.604396,61.5384615 241.703297,59.8901099 C242.252747,58.2417582 241.703297,57.1428571 240.054945,56.043956 C231.263736,52.1978022 223.021978,54.9450549 216.428571,57.1428571 C210.384615,59.3406593 206.538462,60.4395604 203.241758,58.2417582 C202.142857,57.6923077 200.494505,57.6923077 199.395604,59.3406593 C199.395604,61.5384615 199.945055,63.1868132 201.043956,63.7362637 L201.043956,63.7362637 Z" id="Shape"></path>
            </g>
        </g>
    </g>
</svg>